<?xml version="1.0" encoding="UTF-8" standalone="no"?>
<!DOCTYPE svg PUBLIC "-//W3C//DTD SVG 1.1//EN" "http://www.w3.org/Graphics/SVG/1.1/DTD/svg11.dtd">
<svg xmlns="http://www.w3.org/2000/svg" version="1.1" viewBox="0.00 0.00 612.00 612.00">
<path fill="#baa377" d="
  M 609.82 612.00
  L 608.82 612.00
  Q 305.15 611.87 1.48 611.91
  Q 0.62 611.91 0.00 610.83
  L 0.00 1.91
  Q 0.50 0.68 1.48 0.68
  Q 305.62 0.69 609.72 0.69
  A 1.54 1.54 0.0 0 1 611.26 2.23
  Q 611.26 305.75 611.25 609.50
  Q 611.25 611.57 609.82 612.00
  Z
  M 95.85 41.20
  A 1.57 1.57 0.0 0 0 94.28 39.63
  L 41.92 39.63
  A 1.57 1.57 0.0 0 0 40.35 41.20
  L 40.35 285.20
  A 1.57 1.57 0.0 0 0 41.92 286.77
  L 94.28 286.77
  A 1.57 1.57 0.0 0 0 95.85 285.20
  L 95.85 41.20
  Z
  M 190.74 41.11
  A 1.46 1.46 0.0 0 0 189.28 39.65
  L 136.26 39.65
  A 1.46 1.46 0.0 0 0 134.80 41.11
  L 134.80 284.51
  A 1.46 1.46 0.0 0 0 136.26 285.97
  L 189.28 285.97
  A 1.46 1.46 0.0 0 0 190.74 284.51
  L 190.74 41.11
  Z
  M 286.57 41.42
  A 1.68 1.68 0.0 0 0 284.89 39.74
  L 232.39 39.74
  A 1.68 1.68 0.0 0 0 230.71 41.42
  L 230.71 284.42
  A 1.68 1.68 0.0 0 0 232.39 286.10
  L 284.89 286.10
  A 1.68 1.68 0.0 0 0 286.57 284.42
  L 286.57 41.42
  Z
  M 429.77 41.36
  A 1.62 1.62 0.0 0 0 428.15 39.74
  L 327.51 39.74
  A 1.62 1.62 0.0 0 0 325.89 41.36
  L 325.89 142.00
  A 1.62 1.62 0.0 0 0 327.51 143.62
  L 428.15 143.62
  A 1.62 1.62 0.0 0 0 429.77 142.00
  L 429.77 41.36
  Z
  M 572.91 41.19
  A 1.30 1.30 0.0 0 0 571.61 39.89
  L 470.61 39.89
  A 1.30 1.30 0.0 0 0 469.31 41.19
  L 469.31 142.19
  A 1.30 1.30 0.0 0 0 470.61 143.49
  L 571.61 143.49
  A 1.30 1.30 0.0 0 0 572.91 142.19
  L 572.91 41.19
  Z
  M 429.37 183.88
  A 1.73 1.73 0.0 0 0 427.64 182.15
  L 327.42 182.15
  A 1.73 1.73 0.0 0 0 325.69 183.88
  L 325.69 284.10
  A 1.73 1.73 0.0 0 0 327.42 285.83
  L 427.64 285.83
  A 1.73 1.73 0.0 0 0 429.37 284.10
  L 429.37 183.88
  Z
  M 572.95 183.81
  A 1.64 1.64 0.0 0 0 571.31 182.17
  L 470.97 182.17
  A 1.64 1.64 0.0 0 0 469.33 183.81
  L 469.33 284.15
  A 1.64 1.64 0.0 0 0 470.97 285.79
  L 571.31 285.79
  A 1.64 1.64 0.0 0 0 572.95 284.15
  L 572.95 183.81
  Z
  M 95.1458 327.2488
  A 1.68 1.68 0.0 0 0 93.4687 325.5658
  L 40.9888 325.4742
  A 1.68 1.68 0.0 0 0 39.3058 327.1513
  L 39.2142 379.6312
  A 1.68 1.68 0.0 0 0 40.8913 381.3142
  L 93.3712 381.4058
  A 1.68 1.68 0.0 0 0 95.0542 379.7287
  L 95.1458 327.2488
  Z
  M 190.40 327.38
  A 1.60 1.60 0.0 0 0 188.80 325.78
  L 136.44 325.78
  A 1.60 1.60 0.0 0 0 134.84 327.38
  L 134.84 379.74
  A 1.60 1.60 0.0 0 0 136.44 381.34
  L 188.80 381.34
  A 1.60 1.60 0.0 0 0 190.40 379.74
  L 190.40 327.38
  Z
  M 285.4954 327.8917
  A 2.17 2.17 0.0 0 0 283.3216 325.7254
  L 232.2217 325.8146
  A 2.17 2.17 0.0 0 0 230.0554 327.9884
  L 230.1446 379.0883
  A 2.17 2.17 0.0 0 0 232.3184 381.2546
  L 283.4183 381.1654
  A 2.17 2.17 0.0 0 0 285.5846 378.9916
  L 285.4954 327.8917
  Z
  M 571.60 327.84
  A 2.05 2.05 0.0 0 0 569.55 325.79
  L 327.87 325.79
  A 2.05 2.05 0.0 0 0 325.82 327.84
  L 325.82 569.52
  A 2.05 2.05 0.0 0 0 327.87 571.57
  L 569.55 571.57
  A 2.05 2.05 0.0 0 0 571.60 569.52
  L 571.60 327.84
  Z
  M 190.7160 422.9387
  A 1.51 1.51 0.0 0 0 189.2086 421.4260
  L 136.4887 421.3340
  A 1.51 1.51 0.0 0 0 134.9760 422.8414
  L 134.8840 475.5613
  A 1.51 1.51 0.0 0 0 136.3914 477.0740
  L 189.1113 477.1660
  A 1.51 1.51 0.0 0 0 190.6240 475.6586
  L 190.7160 422.9387
  Z
  M 95.2765 422.5786
  A 1.12 1.12 0.0 0 0 94.1585 421.4566
  L 40.7786 421.3635
  A 1.12 1.12 0.0 0 0 39.6566 422.4815
  L 39.5635 475.8614
  A 1.12 1.12 0.0 0 0 40.6815 476.9834
  L 94.0614 477.0765
  A 1.12 1.12 0.0 0 0 95.1834 475.9585
  L 95.2765 422.5786
  Z
  M 285.54 422.96
  A 1.58 1.58 0.0 0 0 283.96 421.38
  L 231.62 421.38
  A 1.58 1.58 0.0 0 0 230.04 422.96
  L 230.04 475.30
  A 1.58 1.58 0.0 0 0 231.62 476.88
  L 283.96 476.88
  A 1.58 1.58 0.0 0 0 285.54 475.30
  L 285.54 422.96
  Z
  M 95.20 517.90
  A 1.28 1.28 0.0 0 0 93.92 516.62
  L 40.42 516.62
  A 1.28 1.28 0.0 0 0 39.14 517.90
  L 39.14 571.40
  A 1.28 1.28 0.0 0 0 40.42 572.68
  L 93.92 572.68
  A 1.28 1.28 0.0 0 0 95.20 571.40
  L 95.20 517.90
  Z
  M 190.5667 517.9388
  A 1.12 1.12 0.0 0 0 189.4487 516.8168
  L 135.8688 516.7233
  A 1.12 1.12 0.0 0 0 134.7468 517.8413
  L 134.6533 571.4212
  A 1.12 1.12 0.0 0 0 135.7713 572.5432
  L 189.3512 572.6367
  A 1.12 1.12 0.0 0 0 190.4732 571.5187
  L 190.5667 517.9388
  Z
  M 285.65 518.41
  A 1.56 1.56 0.0 0 0 284.09 516.85
  L 231.51 516.85
  A 1.56 1.56 0.0 0 0 229.95 518.41
  L 229.95 570.99
  A 1.56 1.56 0.0 0 0 231.51 572.55
  L 284.09 572.55
  A 1.56 1.56 0.0 0 0 285.65 570.99
  L 285.65 518.41
  Z"
/>
</svg>
